<svg width="24" height="18" viewBox="0 0 24 18" fill="none" xmlns="http://www.w3.org/2000/svg">
<path d="M1.10965 9.36997L9.46369 16.9645C9.6544 17.1379 9.94565 17.1379 10.1364 16.9645L10.8454 16.32C11.0636 16.1216 11.0636 15.7784 10.8454 15.58L4.83841 10.1192C4.771 10.0579 4.81395 9.94574 4.90505 9.94517L22.7031 9.83344C22.9781 9.83171 23.2 9.60837 23.2 9.33345V8.66654C23.2 8.39162 22.9781 8.16827 22.7031 8.16655L4.90505 8.05483C4.81395 8.05426 4.771 7.94211 4.83841 7.88084L10.8454 2.41997C11.0636 2.22159 11.0636 1.87841 10.8454 1.68003L10.1364 1.03547C9.94565 0.862095 9.6544 0.862095 9.46369 1.03547L1.10965 8.63003C0.891428 8.82841 0.891427 9.17159 1.10965 9.36997Z" fill="#B04DA0" stroke="#B04DA0" stroke-width="0.4"/>
</svg>
