<svg width="24" height="19" viewBox="0 0 24 19" fill="none" xmlns="http://www.w3.org/2000/svg">
<path d="M11.4545 19L8.86705 16.5953C7.35114 15.1859 6.09223 13.9791 5.09034 12.975C4.08845 11.9708 3.28258 11.0635 2.67273 10.2531C2.06288 9.44274 1.63163 8.68081 1.37898 7.96732C1.12633 7.25382 1 6.49189 1 5.6815C1 4.09597 1.52708 2.75267 2.58125 1.6516C3.63542 0.550533 4.93788 0 6.48864 0C7.48182 0 8.40095 0.233426 9.24602 0.700278C10.0911 1.16713 10.8273 1.84979 11.4545 2.74826C12.1864 1.79694 12.9617 1.10107 13.7807 0.66064C14.5996 0.220213 15.4795 0 16.4205 0C17.8244 0 19.0031 0.484469 19.9564 1.45341C20.9097 2.42235 21.4909 3.59388 21.7 4.96801H20.158C20.0011 3.99907 19.596 3.19309 18.9426 2.55007C18.2892 1.90705 17.4485 1.58554 16.4205 1.58554C15.5318 1.58554 14.7042 1.8586 13.9375 2.40473C13.1708 2.95086 12.5523 3.72601 12.0818 4.73018H10.8011C10.3481 3.74363 9.73826 2.97288 8.97159 2.41794C8.20492 1.863 7.37727 1.58554 6.48864 1.58554C5.33864 1.58554 4.39773 1.97752 3.66591 2.76147C2.93409 3.54543 2.56818 4.51878 2.56818 5.6815C2.56818 6.36857 2.70322 7.03802 2.9733 7.68985C3.24337 8.34168 3.71285 9.08218 4.38173 9.91137C5.05061 10.7406 5.96103 11.7095 7.11298 12.8182C8.26493 13.9269 9.71212 15.2916 11.4545 16.9124C12.0121 16.4015 12.5392 15.9258 13.0358 15.4854C13.5324 15.045 14.0246 14.6134 14.5125 14.1905L14.6858 14.3616L15.0614 14.7323L15.4369 15.1029L15.6102 15.274C15.1398 15.6968 14.6519 16.1284 14.1466 16.5688C13.6413 17.0093 13.1011 17.4937 12.5261 18.0223L11.4545 19ZM19.0341 14.7983V11.363H15.6364V9.77747H19.0341V6.34214H20.6023V9.77747H24V11.363H20.6023V14.7983H19.0341Z" fill="#E55C7A"/>
</svg>
