<svg width="23" height="19" viewBox="0 0 23 19" fill="none" xmlns="http://www.w3.org/2000/svg">
<path d="M10.4545 19L7.86705 16.5953C6.35114 15.1859 5.09223 13.9791 4.09034 12.975C3.08845 11.9708 2.28258 11.0635 1.67273 10.2531C1.06288 9.44274 0.631629 8.68081 0.378977 7.96732C0.126326 7.25382 0 6.49189 0 5.6815C0 4.09597 0.527083 2.75267 1.58125 1.6516C2.63542 0.550533 3.93788 0 5.48864 0C6.48182 0 7.40095 0.233426 8.24602 0.700278C9.0911 1.16713 9.82727 1.84979 10.4545 2.74826C11.1864 1.79694 11.9617 1.10107 12.7807 0.66064C13.5996 0.220213 14.4795 0 15.4205 0C16.8244 0 18.0031 0.484469 18.9564 1.45341C19.9097 2.42235 20.4909 3.59388 20.7 4.96801H19.158C19.0011 3.99907 18.596 3.19309 17.9426 2.55007C17.2892 1.90705 16.4485 1.58554 15.4205 1.58554C14.5318 1.58554 13.7042 1.8586 12.9375 2.40473C12.1708 2.95086 11.5523 3.72601 11.0818 4.73018H9.80114C9.34811 3.74363 8.73826 2.97288 7.97159 2.41794C7.20492 1.863 6.37727 1.58554 5.48864 1.58554C4.33864 1.58554 3.39773 1.97752 2.66591 2.76147C1.93409 3.54543 1.56818 4.51878 1.56818 5.6815C1.56818 6.36857 1.70322 7.03802 1.9733 7.68985C2.24337 8.34168 2.71285 9.08218 3.38173 9.91137C4.05061 10.7406 4.96103 11.7095 6.11298 12.8182C7.26493 13.9269 8.71212 15.2916 10.4545 16.9124C11.0121 16.4015 11.5392 15.9258 12.0358 15.4854C12.5324 15.045 13.0246 14.6134 13.5125 14.1905L13.6858 14.3616L14.0614 14.7323L14.4369 15.1029L14.6102 15.274C14.1398 15.6968 13.6519 16.1284 13.1466 16.5688C12.6413 17.0093 12.1011 17.4937 11.5261 18.0223L10.4545 19ZM18.0341 14.7983V11.363H14.6364V9.77747H18.0341V6.34214H19.6023V9.77747H23V11.363H19.6023V14.7983H18.0341Z" fill="#B04DA0"/>
</svg>
