<svg width="19" height="19" viewBox="0 0 19 19" fill="none" xmlns="http://www.w3.org/2000/svg">
<path d="M0 17.4167C0 18.2911 0.708882 19 1.58333 19H17.4167C18.2911 19 19 18.2911 19 17.4167V17.4167C19 16.5422 18.2911 15.8333 17.4167 15.8333H1.58333C0.708881 15.8333 0 16.5422 0 17.4167V17.4167ZM0 9.5C0 10.3745 0.708882 11.0833 1.58333 11.0833H17.4167C18.2911 11.0833 19 10.3745 19 9.5V9.5C19 8.62555 18.2911 7.91667 17.4167 7.91667H1.58333C0.708881 7.91667 0 8.62555 0 9.5V9.5ZM1.58333 0C0.708881 0 0 0.708883 0 1.58333V1.58333C0 2.45778 0.708882 3.16667 1.58333 3.16667H17.4167C18.2911 3.16667 19 2.45778 19 1.58333V1.58333C19 0.708883 18.2911 0 17.4167 0H1.58333Z" fill="#B04DA0"/>
</svg>
