<svg width="115" height="19" viewBox="0 0 115 19" fill="none" xmlns="http://www.w3.org/2000/svg">
<path d="M9.5 0L12.4595 5.4266L18.535 6.56434L14.2886 11.0559L15.084 17.1857L9.5 14.535L3.91604 17.1857L4.71143 11.0559L0.464966 6.56434L6.5405 5.4266L9.5 0Z" fill="#E7D396"/>
<path d="M33.5 0L36.4595 5.4266L42.535 6.56434L38.2886 11.0559L39.084 17.1857L33.5 14.535L27.916 17.1857L28.7114 11.0559L24.465 6.56434L30.5405 5.4266L33.5 0Z" fill="#E7D396"/>
<path d="M57.5 0L60.4595 5.4266L66.535 6.56434L62.2886 11.0559L63.084 17.1857L57.5 14.535L51.916 17.1857L52.7114 11.0559L48.465 6.56434L54.5405 5.4266L57.5 0Z" fill="#E7D396"/>
<path d="M81.5 0L84.4595 5.4266L90.535 6.56434L86.2886 11.0559L87.084 17.1857L81.5 14.535L75.916 17.1857L76.7114 11.0559L72.465 6.56434L78.5405 5.4266L81.5 0Z" fill="#E7D396"/>
<path d="M81.5 0L84.4595 5.4266L90.535 6.56434L86.2886 11.0559L87.084 17.1857L81.5 14.535L75.916 17.1857L76.7114 11.0559L72.465 6.56434L78.5405 5.4266L81.5 0Z" fill="#D9D9D9"/>
<path d="M81.5 0V14.535L75.916 17.1857L76.7114 11.0559L72.465 6.56434L78.5405 5.4266L81.5 0Z" fill="#E7D396"/>
<path d="M105.5 0L108.46 5.4266L114.535 6.56434L110.289 11.0559L111.084 17.1857L105.5 14.535L99.916 17.1857L100.711 11.0559L96.465 6.56434L102.541 5.4266L105.5 0Z" fill="#E7D396"/>
<path d="M105.5 0L108.459 5.4266L114.535 6.56434L110.289 11.0559L111.084 17.1857L105.5 14.535L99.916 17.1857L100.711 11.0559L96.465 6.56434L102.541 5.4266L105.5 0Z" fill="#D9D9D9"/>
</svg>
